<?xml version="1.0" encoding="UTF-8" standalone="no"?>
<!-- Created with Inkscape (http://www.inkscape.org/) -->

<svg
   version="1.1"
   id="svg2"
   xml:space="preserve"
   width="285.54666"
   height="285.54666"
   viewBox="0 0 285.54666 285.54666"
   sodipodi:docname="OpenInfra_Days_Korea_Round.eps"
   xmlns:inkscape="http://www.inkscape.org/namespaces/inkscape"
   xmlns:sodipodi="http://sodipodi.sourceforge.net/DTD/sodipodi-0.dtd"
   xmlns="http://www.w3.org/2000/svg"
   xmlns:svg="http://www.w3.org/2000/svg"><defs
     id="defs6" /><sodipodi:namedview
     id="namedview4"
     pagecolor="#ffffff"
     bordercolor="#666666"
     borderopacity="1.0"
     inkscape:pageshadow="2"
     inkscape:pageopacity="0.0"
     inkscape:pagecheckerboard="0" /><g
     id="g8"
     inkscape:groupmode="layer"
     inkscape:label="ink_ext_XXXXXX"
     transform="matrix(1.3333333,0,0,-1.3333333,0,285.54667)"><g
       id="g10"
       transform="scale(0.1)"><path
         d="m 504.012,1692.35 -0.805,0.83 c -15.84,16.26 -34.074,18.48 -45.504,7.35 -11.547,-11.25 -9.816,-29.3 6.02,-45.56 l 0.804,-0.83 c 15.836,-16.26 34.192,-18.37 45.625,-7.24 11.426,11.13 9.7,29.19 -6.14,45.45 z m -56.582,-55.78 -1.379,1.41 c -24.106,24.75 -25.418,57.23 -3.606,78.46 21.918,21.35 53.993,19.05 77.981,-5.58 l 1.379,-1.4 c 23.984,-24.65 25.414,-57.24 3.609,-78.47 -21.926,-21.34 -54.004,-19.05 -77.984,5.58"
         style="fill:#ed1441;fill-opacity:1;fill-rule:nonzero;stroke:none"
         id="path12" /><path
         d="m 572.668,1747.55 c 9.922,7.32 10.891,17.65 4.535,26.25 l -0.101,0.13 c -7.133,9.66 -16.606,10.86 -26.793,3.32 l -10.457,-7.71 22.093,-29.93 z m -64.809,25.14 30.836,22.78 c 20.774,15.35 42.774,12.99 57.336,-6.73 l 0.196,-0.27 c 15.75,-21.31 8.445,-43.27 -10.715,-58.04 l -10.856,-8.02 20.824,-28.19 -19.187,-14.17 -68.434,92.64"
         style="fill:#ed1441;fill-opacity:1;fill-rule:nonzero;stroke:none"
         id="path14" /><path
         d="m 597.992,1836.32 64.571,36.54 10.605,-18.75 -43.945,-24.87 12.226,-21.62 38.653,21.87 10.613,-18.75 -38.652,-21.87 12.636,-22.33 44.524,25.19 10.613,-18.76 -65.137,-36.85 -56.707,100.2"
         style="fill:#ed1441;fill-opacity:1;fill-rule:nonzero;stroke:none"
         id="path16" /><path
         d="m 693.676,1888.33 20.293,8.17 65.996,-45.8 -25.078,62.28 21.679,8.73 43.028,-106.85 -18.926,-7.62 -68.293,47.54 26.008,-64.57 -21.672,-8.73 -43.035,106.85"
         style="fill:#ed1441;fill-opacity:1;fill-rule:nonzero;stroke:none"
         id="path18" /><path
         d="m 811.82,1932.04 22.95,6.55 31.679,-110.77 -22.949,-6.56 -31.68,110.78"
         style="fill:#ed1441;fill-opacity:1;fill-rule:nonzero;stroke:none"
         id="path20" /><path
         d="m 870.023,1948.41 21.551,3.79 55.071,-58.47 -11.641,66.11 23.016,4.06 19.96,-113.44 -20.085,-3.53 -56.954,60.64 12.059,-68.55 -23.008,-4.05 -19.969,113.44"
         style="fill:#ed1441;fill-opacity:1;fill-rule:nonzero;stroke:none"
         id="path22" /><path
         d="m 995.746,1967.38 74.134,3.39 1,-21.87 -50.31,-2.29 1.18,-25.81 44.23,2.02 0.99,-21.87 -44.22,-2.01 2.08,-45.54 -23.84,-1.09 -5.244,115.07"
         style="fill:#ed1441;fill-opacity:1;fill-rule:nonzero;stroke:none"
         id="path24" /><path
         d="m 1138.31,1910.91 c 12.13,-0.93 19.22,5.45 20.01,15.78 l 0.02,0.16 c 0.88,11.49 -5.72,17.76 -17.86,18.7 l -17.05,1.32 -2.67,-34.6 z m -36.99,59.27 43.12,-3.33 c 13.28,-1.03 23.65,-5.62 30.31,-13.39 5.74,-6.71 8.49,-15.99 7.62,-27.31 l -0.05,-0.65 c -1.34,-17.38 -10.88,-27.69 -23.94,-32.3 l 21.14,-44.51 -27.21,2.1 -18.24,39.34 -14.93,1.16 -2.91,-37.72 -23.77,1.84 8.86,114.77"
         style="fill:#ed1441;fill-opacity:1;fill-rule:nonzero;stroke:none"
         id="path26" /><path
         d="m 1259.48,1879.36 -4.28,39.31 -20.32,-33.98 z m -8.23,73.17 22.19,-4.8 15.85,-121.97 -24.12,5.22 -3.08,26.26 -38.76,8.4 -13.49,-22.68 -23.48,5.09 64.89,104.48"
         style="fill:#ed1441;fill-opacity:1;fill-rule:nonzero;stroke:none"
         id="path28" /><path
         d="m 1398.65,1885.25 -28.42,-66.19 12.09,-5.19 c 16.62,-7.14 32.96,-0.37 41.98,20.64 l 0.32,0.76 c 9.02,21 2.75,37.66 -13.88,44.79 z m -13.39,29.21 34.15,-14.66 c 30.67,-13.18 41.37,-42.84 28.07,-73.82 l -0.58,-1.36 c -13.31,-30.98 -42.26,-43.78 -72.93,-30.6 l -34.15,14.66 45.44,105.78"
         style="fill:#ed1441;fill-opacity:1;fill-rule:nonzero;stroke:none"
         id="path30" /><path
         d="m 1507.15,1777.16 8.52,38.62 -30.13,-25.7 z m 15.62,71.96 19.48,-11.66 -24.01,-120.62 -21.19,12.68 5.5,25.86 -34.03,20.35 -20.04,-17.16 -20.62,12.33 94.91,78.22"
         style="fill:#ed1441;fill-opacity:1;fill-rule:nonzero;stroke:none"
         id="path32" /><path
         d="m 1567.26,1735.39 12.84,78.14 21.37,-16.46 -9.6,-49.7 45.7,21.9 20.86,-16.05 -72.07,-32.12 -27.89,-36.25 -18.91,14.56 27.7,35.98"
         style="fill:#ed1441;fill-opacity:1;fill-rule:nonzero;stroke:none"
         id="path34" /><path
         d="m 1601.85,1669.94 22.43,2.62 c 0.78,-10.22 3.08,-21.26 11.3,-29.33 6.56,-6.47 13.78,-7.11 18.51,-2.29 l 0.12,0.11 c 4.03,4.11 4.23,9 -3.11,25 -9.02,19.93 -12.63,34.34 1.22,48.41 l 0.23,0.23 c 14.07,14.32 34.68,13.2 50.52,-2.37 9.62,-9.45 15.77,-21.97 16.59,-36.16 l -22.2,-3.56 c -1,9.3 -3.64,18.59 -9.98,24.83 -5.87,5.76 -12.39,6.4 -16.54,2.18 l -0.11,-0.11 c -4.62,-4.71 -3.99,-9.7 3.6,-27.56 8.78,-19.71 10.51,-33.42 -2.05,-46.21 l -0.24,-0.24 c -15,-15.25 -35.84,-13.21 -51.81,2.48 -10.43,10.27 -17.77,24.64 -18.48,41.97"
         style="fill:#ed1441;fill-opacity:1;fill-rule:nonzero;stroke:none"
         id="path36" /><path
         d="m 1071.33,2141.59 c -304.107,0 -606.201,-128.86 -817.998,-379.2 C -128.625,1310.93 -72.2773,635.301 379.195,253.34 580.324,83.1719 825.941,0.0117188 1070.26,0.0117188 c 304.11,0 606.2,128.8402812 817.99,379.1792812 381.97,451.481 325.61,1127.109 -125.85,1509.069 -201.14,170.16 -446.75,253.33 -691.07,253.33 z m 0,-51.59 c 240.35,0 473.95,-85.64 657.74,-241.13 207.83,-175.83 334.74,-422.07 357.37,-693.36 C 2109.07,884.211 2024.7,620.359 1848.87,412.531 1654.81,183.148 1371.02,51.6016 1070.26,51.6016 829.898,51.6016 596.313,137.23 412.523,292.719 204.691,468.559 77.7695,714.801 55.1445,986.09 32.5156,1257.38 116.891,1521.24 292.723,1729.07 486.781,1958.44 770.57,2090 1071.33,2090"
         style="fill:#3b3838;fill-opacity:1;fill-rule:nonzero;stroke:none"
         id="path38" /><path
         d="m 717.094,404.879 43.23,-18.07 -27.801,-66.528 74.161,47.168 49.726,-20.781 -82.031,-49.809 13.457,-119.05 -50.449,21.082 -8.274,75.41 -20.769,-11.91 -18.274,-43.731 -43.242,18.059 70.266,168.16"
         style="fill:#3b3838;fill-opacity:1;fill-rule:nonzero;stroke:none"
         id="path40" /><path
         d="m 953.695,235.078 0.508,2.82 c 5.652,30.993 -5.742,52.653 -27.012,56.524 -21.261,3.879 -39.257,-12.16 -44.914,-43.141 l -0.515,-2.832 c -5.645,-30.988 5.761,-52.66 27.011,-56.527 21.524,-3.934 39.278,12.168 44.922,43.156 z m -119.199,21.203 0.703,3.821 c 9.746,53.539 51.699,84.808 99.864,76.027 48.398,-8.82 76.207,-52.258 66.427,-106.059 l -0.72,-3.832 c -9.75,-53.539 -51.704,-84.797 -99.86,-76.019 -48.406,8.812 -76.219,52.269 -66.414,106.062"
         style="fill:#3b3838;fill-opacity:1;fill-rule:nonzero;stroke:none"
         id="path42" /><path
         d="m 1107.34,232.93 c 15.87,0.66 24.86,10.16 24.25,24.73 l -0.02,0.52 c -0.66,15.609 -10.87,23 -26.48,22.351 l -22.89,-0.953 1.98,-47.617 z m -73.41,85.55 71.54,2.989 c 24.45,1.019 43.19,-4.731 55.41,-16.199 10.57,-9.719 16.88,-23.54 17.65,-42 l 0.05,-1.309 c 1.13,-27.051 -11.44,-44.512 -30.29,-54.949 l 40.22,-64.524 -52.81,-2.207 -33.32,55.168 -16.65,-0.699 2.36,-56.441 -46.58,-1.95 -7.58,182.121"
         style="fill:#3b3838;fill-opacity:1;fill-rule:nonzero;stroke:none"
         id="path44" /><path
         d="m 1193.65,328.23 121.74,30.372 9.96,-39.903 -76.79,-19.168 7.25,-29.062 69.21,17.281 9.4,-37.641 -69.21,-17.269 7.56,-30.309 77.8,19.41 9.96,-39.902 -122.76,-30.648 -44.12,176.839"
         style="fill:#3b3838;fill-opacity:1;fill-rule:nonzero;stroke:none"
         id="path46" /><path
         d="m 1459.45,301.18 -38.47,40.711 7.98,-55.442 z m -85.28,84.332 42.69,20.609 137.64,-137.109 -44.32,-21.41 -23.89,24.91 -51.58,-24.934 4.89,-34.066 -43.38,-20.953 -22.05,192.953"
         style="fill:#3b3838;fill-opacity:1;fill-rule:nonzero;stroke:none"
         id="path48" /><path
         d="m 1522.52,1060.27 c 0,-192.93 -148.85,-341.79 -364.3,-341.79 H 687.258 V 1404 h 470.962 c 215.45,0 364.3,-148.86 364.3,-341.78 z m -23.37,516.84 c -124.56,105.38 -276.73,156.91 -428.02,156.91 -188.376,0 -375.454,-79.79 -506.65,-234.86 C 327.902,1219.53 362.805,801.059 642.434,564.48 767.008,459.09 919.137,407.57 1070.47,407.57 c 188.35,0 375.46,79.809 506.64,234.871 236.57,279.629 201.67,698.099 -77.96,934.669"
         style="fill:#ed1441;fill-opacity:1;fill-rule:nonzero;stroke:none"
         id="path50" /><path
         d="m 961.266,1011.28 35.851,54.91 35.833,-54.91 h -19.94 v -85.311 c 0,-33.231 25.34,-60.289 56.48,-60.289 31.16,0 56.5,27.058 56.5,60.289 v 119.841 h 33.65 V 925.961 c 0,-49.672 -40.42,-90.063 -90.15,-90.063 -49.69,0 -90.131,40.391 -90.131,90.063 v 85.319 h -18.093"
         style="fill:#ed1441;fill-opacity:1;fill-rule:nonzero;stroke:none"
         id="path52" /><path
         d="m 1142.93,1067.2 -35.84,54.91 h 18.9 v 74.43 c 0,33.23 -25.34,60.27 -56.49,60.27 -31.15,0 -56.49,-27.04 -56.49,-60.27 v -108.03 h -33.651 v 108.03 c 0,49.66 40.431,90.05 90.141,90.05 49.72,0 90.14,-40.39 90.14,-90.05 v -74.43 h 19.12 l -35.83,-54.91"
         style="fill:#ed1441;fill-opacity:1;fill-rule:nonzero;stroke:none"
         id="path54" /></g></g></svg>
