<?xml version="1.0" encoding="UTF-8" standalone="no"?>
<svg
   width="230"
   height="50"
   xml:space="preserve"
   overflow="hidden"
   version="1.1"
   id="svg105"
   sodipodi:docname="openinfradayskorea.svg"
   inkscape:version="1.1 (c4e8f9e, 2021-05-24)"
   xmlns:inkscape="http://www.inkscape.org/namespaces/inkscape"
   xmlns:sodipodi="http://sodipodi.sourceforge.net/DTD/sodipodi-0.dtd"
   xmlns="http://www.w3.org/2000/svg"
   xmlns:svg="http://www.w3.org/2000/svg"><sodipodi:namedview
     id="namedview107"
     pagecolor="#ffffff"
     bordercolor="#666666"
     borderopacity="1.0"
     inkscape:pageshadow="2"
     inkscape:pageopacity="0.0"
     inkscape:pagecheckerboard="0"
     showgrid="false"
     fit-margin-top="0"
     fit-margin-left="0"
     fit-margin-right="0"
     fit-margin-bottom="0"
     inkscape:zoom="1.4007353"
     inkscape:cx="88.167979"
     inkscape:cy="13.92126"
     inkscape:window-width="1312"
     inkscape:window-height="847"
     inkscape:window-x="0"
     inkscape:window-y="25"
     inkscape:window-maximized="0"
     inkscape:current-layer="svg105" /><defs
     id="defs33"><clipPath
       id="clip0"><rect
         x="232"
         y="270"
         width="816"
         height="179"
         id="rect9" /></clipPath><clipPath
       id="clip1"><rect
         x="232"
         y="271"
         width="816"
         height="178"
         id="rect12" /></clipPath><clipPath
       id="clip2"><rect
         x="232"
         y="271"
         width="816"
         height="178"
         id="rect15" /></clipPath><clipPath
       id="clip3"><rect
         x="232"
         y="271"
         width="816"
         height="178"
         id="rect18" /></clipPath><clipPath
       id="clip4"><rect
         x="232"
         y="271"
         width="817"
         height="179"
         id="rect21" /></clipPath><clipPath
       id="clip5"><rect
         x="234"
         y="271"
         width="177"
         height="176"
         id="rect24" /></clipPath><clipPath
       id="clip6"><rect
         x="234"
         y="271"
         width="177"
         height="176"
         id="rect27" /></clipPath><clipPath
       id="clip7"><rect
         x="234"
         y="271"
         width="177"
         height="176"
         id="rect30" /></clipPath></defs><g
     clip-path="url(#clip0)"
     transform="matrix(0.28412959,0,0,0.28412959,-66.490875,-76.999119)"
     id="g103"><g
       clip-path="url(#clip1)"
       id="g101"><g
         clip-path="url(#clip2)"
         id="g99"><g
           clip-path="url(#clip3)"
           id="g97"><g
             clip-path="url(#clip4)"
             id="g95"><g
               clip-path="url(#clip5)"
               id="g83"><g
                 clip-path="url(#clip6)"
                 id="g81"><g
                   clip-path="url(#clip7)"
                   id="g79"><path
                     d="m 41.4151,139.062 -0.0661,0.068 c -1.3016,1.336 -2.7999,1.519 -3.7391,0.604 -0.9488,-0.924 -0.8066,-2.408 0.4946,-3.743 l 0.0661,-0.068 c 1.3013,-1.337 2.8096,-1.51 3.7491,-0.596 0.9389,0.915 0.797,2.399 -0.5046,3.735 z m -4.6493,-4.584 -0.1134,0.116 c -1.9808,2.034 -2.0886,4.703 -0.2963,6.447 1.801,1.755 4.4366,1.566 6.4078,-0.458 l 0.1133,-0.115 c 1.9708,-2.026 2.0883,-4.703 0.2966,-6.448 -1.8017,-1.754 -4.4376,-1.565 -6.408,0.458"
                     fill="#ed1441"
                     fill-rule="nonzero"
                     fill-opacity="1"
                     transform="matrix(1.00073,0,0,-1,234.016,446.977)"
                     id="path35" /><path
                     d="m 47.0567,143.598 c 0.8153,0.602 0.8949,1.45 0.3726,2.157 l -0.0083,0.011 c -0.5861,0.793 -1.3645,0.892 -2.2016,0.272 l -0.8592,-0.634 1.8154,-2.459 z m -5.3255,2.065 2.5339,1.873 c 1.707,1.261 3.5148,1.067 4.7113,-0.554 l 0.0161,-0.021 c 1.2943,-1.752 0.694,-3.556 -0.8804,-4.77 l -0.8921,-0.659 1.7111,-2.316 -1.5766,-1.165 -5.6233,7.612"
                     fill="#ed1441"
                     fill-rule="nonzero"
                     fill-opacity="1"
                     transform="matrix(1.00073,0,0,-1,234.016,446.977)"
                     id="path37" /><path
                     d="m 49.1376,150.892 5.3058,3.002 0.8714,-1.54 -3.6109,-2.044 1.0045,-1.776 3.1762,1.797 0.8721,-1.541 -3.1761,-1.797 1.0384,-1.835 3.6585,2.07 0.8721,-1.541 -5.3524,-3.028 -4.6596,8.233"
                     fill="#ed1441"
                     fill-rule="nonzero"
                     fill-opacity="1"
                     transform="matrix(1.00073,0,0,-1,234.016,446.977)"
                     id="path39" /><path
                     d="m 57,155.166 1.6675,0.671 5.4229,-3.763 -2.0606,5.118 1.7814,0.717 3.5356,-8.78 -1.5552,-0.626 -5.6117,3.906 2.1372,-5.305 -1.7808,-0.718 -3.5363,8.78"
                     fill="#ed1441"
                     fill-rule="nonzero"
                     fill-opacity="1"
                     transform="matrix(1.00073,0,0,-1,234.016,446.977)"
                     id="path41" /><path
                     d="m 66.708,158.758 1.8861,0.538 2.6025,-9.102 -1.8852,-0.539 -2.6034,9.103"
                     fill="#ed1441"
                     fill-rule="nonzero"
                     fill-opacity="1"
                     transform="matrix(1.00073,0,0,-1,234.016,446.977)"
                     id="path43" /><path
                     d="m 71.4906,160.103 1.7706,0.311 4.5255,-4.804 -0.9568,5.432 1.8913,0.333 1.6404,-9.321 -1.6505,-0.29 -4.6799,4.983 0.9911,-5.633 -1.8906,-0.332 -1.6411,9.321"
                     fill="#ed1441"
                     fill-rule="nonzero"
                     fill-opacity="1"
                     transform="matrix(1.00073,0,0,-1,234.016,446.977)"
                     id="path45" /><path
                     d="m 81.8213,161.662 6.0918,0.278 0.0823,-1.797 -4.1345,-0.188 0.0971,-2.121 3.6349,0.166 0.0809,-1.797 -3.6335,-0.165 0.1712,-3.742 -1.9593,-0.09 -0.4309,9.456"
                     fill="#ed1441"
                     fill-rule="nonzero"
                     fill-opacity="1"
                     transform="matrix(1.00073,0,0,-1,234.016,446.977)"
                     id="path47" /><path
                     d="m 93.5363,157.021 c 0.9965,-0.076 1.5791,0.448 1.6438,1.297 l 0.002,0.013 c 0.0722,0.944 -0.4699,1.46 -1.4678,1.537 l -1.4011,0.108 -0.2191,-2.843 z m -3.0395,4.871 3.5432,-0.274 c 1.0909,-0.085 1.9431,-0.462 2.4906,-1.1 0.4713,-0.552 0.6972,-1.315 0.6257,-2.244 l -0.004,-0.054 c -0.1099,-1.428 -0.8941,-2.275 -1.9668,-2.654 l 1.7368,-3.657 -2.2357,0.172 -1.4989,3.233 -1.2271,0.095 -0.2387,-3.1 -1.9533,0.152 0.7282,9.431"
                     fill="#ed1441"
                     fill-rule="nonzero"
                     fill-opacity="1"
                     transform="matrix(1.00073,0,0,-1,234.016,446.977)"
                     id="path49" /><path
                     d="m 103.493,154.428 -0.352,3.231 -1.67,-2.792 z m -0.676,6.013 1.823,-0.394 1.302,-10.023 -1.982,0.429 -0.253,2.158 -3.185,0.69 -1.1083,-1.863 -1.9297,0.418 5.333,8.585"
                     fill="#ed1441"
                     fill-rule="nonzero"
                     fill-opacity="1"
                     transform="matrix(1.00073,0,0,-1,234.016,446.977)"
                     id="path51" /><path
                     d="m 114.929,154.913 -2.336,-5.439 0.993,-0.427 c 1.366,-0.586 2.709,-0.03 3.45,1.696 l 0.027,0.063 c 0.741,1.725 0.226,3.095 -1.141,3.68 z m -1.101,2.4 2.806,-1.205 c 2.52,-1.083 3.399,-3.52 2.307,-6.065 l -0.048,-0.112 c -1.093,-2.546 -3.472,-3.597 -5.992,-2.515 l -2.807,1.205 3.734,8.692"
                     fill="#ed1441"
                     fill-rule="nonzero"
                     fill-opacity="1"
                     transform="matrix(1.00073,0,0,-1,234.016,446.977)"
                     id="path53" /><path
                     d="m 123.844,146.031 0.7,3.173 -2.476,-2.111 z m 1.283,5.913 1.601,-0.958 -1.973,-9.912 -1.741,1.042 0.452,2.125 -2.796,1.672 -1.647,-1.409 -1.695,1.012 7.799,6.428"
                     fill="#ed1441"
                     fill-rule="nonzero"
                     fill-opacity="1"
                     transform="matrix(1.00073,0,0,-1,234.016,446.977)"
                     id="path55" /><path
                     d="m 128.783,142.599 1.055,6.421 1.757,-1.353 -0.789,-4.084 3.755,1.8 1.714,-1.319 -5.922,-2.64 -2.292,-2.978 -1.554,1.196 2.276,2.957"
                     fill="#ed1441"
                     fill-rule="nonzero"
                     fill-opacity="1"
                     transform="matrix(1.00073,0,0,-1,234.016,446.977)"
                     id="path57" /><path
                     d="m 131.626,137.22 1.842,0.216 c 0.065,-0.84 0.254,-1.747 0.929,-2.41 0.539,-0.532 1.132,-0.585 1.521,-0.188 l 0.01,0.008 c 0.331,0.338 0.348,0.74 -0.256,2.055 -0.741,1.638 -1.037,2.822 0.101,3.978 l 0.019,0.019 c 1.155,1.176 2.849,1.085 4.151,-0.195 0.79,-0.777 1.296,-1.806 1.363,-2.971 l -1.824,-0.293 c -0.082,0.765 -0.299,1.528 -0.82,2.04 -0.483,0.474 -1.018,0.526 -1.359,0.18 l -0.009,-0.009 c -0.38,-0.387 -0.328,-0.798 0.295,-2.265 0.722,-1.62 0.864,-2.746 -0.168,-3.797 l -0.02,-0.02 c -1.232,-1.253 -2.945,-1.085 -4.257,0.204 -0.857,0.844 -1.46,2.024 -1.518,3.448"
                     fill="#ed1441"
                     fill-rule="nonzero"
                     fill-opacity="1"
                     transform="matrix(1.00073,0,0,-1,234.016,446.977)"
                     id="path59" /><path
                     d="m 88.0325,175.977 c -24.9891,0 -49.8124,-10.589 -67.2159,-31.16 C -10.5692,107.72 -5.93909,52.2033 31.1588,20.8172 47.6858,6.83432 67.8686,9.62946e-4 87.9441,9.62946e-4 112.934,9.62946e-4 137.757,10.5879 155.159,31.1585 c 31.387,37.0984 26.756,92.6155 -10.341,124.0015 -16.528,13.982 -36.71,20.817 -56.7855,20.817 z m 0,-4.24 c 19.7495,0 38.9445,-7.037 54.0465,-19.813 17.078,-14.449 27.506,-34.683 29.366,-56.9745 1.86,-22.2931 -5.074,-43.974 -19.521,-61.0514 C 135.977,15.0494 112.658,4.24015 87.9441,4.24015 68.1936,4.24015 48.9996,11.2763 33.8974,24.053 16.8197,38.5019 6.3904,58.7359 4.53127,81.0278 2.67183,103.32 9.60506,125.002 24.0533,142.079 c 15.9459,18.848 39.2651,29.658 63.9792,29.658"
                     fill="#3b3838"
                     fill-rule="nonzero"
                     fill-opacity="1"
                     transform="matrix(1.00073,0,0,-1,234.016,446.977)"
                     id="path61" /><path
                     d="m 58.9243,33.2693 3.5522,-1.4848 -2.2844,-5.4667 6.0939,3.8759 4.086,-1.7076 -6.7406,-4.0929 1.1059,-9.7824 -4.1455,1.7322 -0.6799,6.1966 -1.7066,-0.9787 -1.5016,-3.5934 -3.5532,1.4839 5.7738,13.8179"
                     fill="#3b3838"
                     fill-rule="nonzero"
                     fill-opacity="1"
                     transform="matrix(1.00073,0,0,-1,234.016,446.977)"
                     id="path63" /><path
                     d="m 78.3658,19.3166 0.0419,0.2317 c 0.4645,2.5467 -0.472,4.3266 -2.2197,4.6446 -1.7469,0.3188 -3.2255,-0.9992 -3.6908,-3.5449 l -0.0418,-0.2327 c -0.4638,-2.5463 0.4734,-4.3271 2.2196,-4.6449 1.7686,-0.3232 3.227,0.9999 3.6908,3.5462 z m -9.7947,1.7423 0.058,0.3139 c 0.801,4.3994 4.2484,6.9688 8.2062,6.2472 3.9767,-0.7247 6.2617,-4.294 5.458,-8.7149 L 82.234,18.5902 c -0.801,-4.3994 -4.2484,-6.9679 -8.2055,-6.2466 -3.9774,0.7241 -6.2631,4.295 -5.4574,8.7153"
                     fill="#3b3838"
                     fill-rule="nonzero"
                     fill-opacity="1"
                     transform="matrix(1.00073,0,0,-1,234.016,446.977)"
                     id="path65" /><path
                     d="m 90.991,19.1401 c 1.304,0.0542 2.043,0.8348 1.9931,2.0321 l -0.002,0.0427 c -0.054,1.2826 -0.8934,1.8899 -2.1758,1.8366 l -1.8811,-0.0783 0.1631,-3.9128 z m -6.0317,7.0297 5.878,0.2456 c 2.0093,0.0837 3.5492,-0.3888 4.5532,-1.3311 0.8684,-0.7986 1.3869,-1.9343 1.4503,-3.4512 l 0.004,-0.1075 c 0.0931,-2.2228 -0.9399,-3.6576 -2.4886,-4.5152 l 3.3051,-5.302 -4.3401,-0.1813 -2.7374,4.5332 -1.368,-0.0575 0.1935,-4.6378 -3.8277,-0.1602 -0.6223,14.965"
                     fill="#3b3838"
                     fill-rule="nonzero"
                     fill-opacity="1"
                     transform="matrix(1.00073,0,0,-1,234.016,446.977)"
                     id="path67" /><path
                     d="m 98.0834,26.971 10.0036,2.4957 0.818,-3.2789 -6.31,-1.5751 0.596,-2.388 5.687,1.42 0.773,-3.093 -5.688,-1.419 0.621,-2.4905 6.394,1.5949 0.818,-3.2788 -10.087,-2.5184 -3.6256,14.5311"
                     fill="#3b3838"
                     fill-rule="nonzero"
                     fill-opacity="1"
                     transform="matrix(1.00073,0,0,-1,234.016,446.977)"
                     id="path69" /><path
                     d="m 119.924,24.7483 -3.161,3.3452 0.656,-4.5557 z m -7.007,6.9296 3.508,1.6935 11.31,-11.2664 -3.642,-1.7593 -1.963,2.0468 -4.239,-2.0488 0.402,-2.7992 -3.565,-1.7217 -1.811,15.8551"
                     fill="#3b3838"
                     fill-rule="nonzero"
                     fill-opacity="1"
                     transform="matrix(1.00073,0,0,-1,234.016,446.977)"
                     id="path71" /><path
                     d="m 125.107,87.1236 c 0,-15.8535 -12.231,-28.0854 -29.935,-28.0854 H 56.4727 V 115.368 H 95.172 c 17.704,0 29.935,-12.232 29.935,-28.0846 z m -1.92,42.4694 c -10.236,8.659 -22.74,12.893 -35.1714,12.893 -15.4786,0 -30.8512,-6.557 -41.6318,-19.299 C 26.944,100.21 29.812,65.8238 52.7894,46.3838 63.0258,37.7239 75.5266,33.4904 87.9617,33.4904 c 15.4763,0 30.8523,6.558 41.6313,19.2995 19.439,22.9774 16.571,57.3641 -6.406,76.8031"
                     fill="#ed1441"
                     fill-rule="nonzero"
                     fill-opacity="1"
                     transform="matrix(1.00073,0,0,-1,234.016,446.977)"
                     id="path73" /><path
                     d="m 78.9882,83.0977 2.9457,4.512 2.9445,-4.512 H 83.24 v -7.0101 c 0,-2.7307 2.082,-4.9537 4.6408,-4.9537 2.5607,0 4.6428,2.223 4.6428,4.9537 v 9.8473 h 2.7651 v -9.848 c 0,-4.0812 -3.3214,-7.4005 -7.4079,-7.4005 -4.0826,0 -7.4059,3.3193 -7.4059,7.4005 v 7.0108 h -1.4867"
                     fill="#ed1441"
                     fill-rule="nonzero"
                     fill-opacity="1"
                     transform="matrix(1.00073,0,0,-1,234.016,446.977)"
                     id="path75" /><path
                     d="m 93.9159,87.6926 -2.9451,4.5121 h 1.5528 v 6.116 c 0,2.7303 -2.0821,4.9523 -4.6415,4.9523 -2.5601,0 -4.6421,-2.222 -4.6421,-4.9523 v -8.877 h -2.7651 v 8.877 c 0,4.0803 3.322,7.4003 7.4072,7.4003 4.0852,0 7.4066,-3.32 7.4066,-7.4003 v -6.116 h 1.5709 l -2.9437,-4.5121"
                     fill="#ed1441"
                     fill-rule="nonzero"
                     fill-opacity="1"
                     transform="matrix(1.00073,0,0,-1,234.016,446.977)"
                     id="path77" /></g></g></g><text
               fill="#000000"
               fill-opacity="1"
               font-family="'Helvetica Neue', 'Helvetica Neue_MSFontService', sans-serif"
               font-style="normal"
               font-variant="normal"
               font-weight="700"
               font-stretch="normal"
               font-size="70px"
               text-anchor="start"
               direction="ltr"
               writing-mode="lr-tb"
               unicode-bidi="normal"
               text-decoration="none"
               transform="matrix(0.672158,0,0,0.674242,449.849,346)"
               id="text85"
               style="text-decoration:none;text-decoration-line:none">OpenInfra</text><text
               fill="#000000"
               fill-opacity="1"
               font-family="'Helvetica Neue', 'Helvetica Neue_MSFontService', sans-serif"
               font-style="normal"
               font-variant="normal"
               font-weight="700"
               font-stretch="normal"
               font-size="70px"
               text-anchor="start"
               direction="ltr"
               writing-mode="lr-tb"
               unicode-bidi="normal"
               text-decoration="none"
               transform="matrix(0.672158,0,0,0.674242,686.11,346)"
               id="text87"
               style="text-decoration:none;text-decoration-line:none">&amp; Cloud Native</text><text
               fill="#000000"
               fill-opacity="1"
               font-family="'Helvetica Neue', 'Helvetica Neue_MSFontService', sans-serif"
               font-style="normal"
               font-variant="normal"
               font-weight="700"
               font-stretch="normal"
               font-size="70px"
               text-anchor="start"
               direction="ltr"
               writing-mode="lr-tb"
               unicode-bidi="normal"
               text-decoration="none"
               transform="matrix(0.672158,0,0,0.674242,449.849,402)"
               id="text89"
               style="text-decoration:none;text-decoration-line:none">Days</text><text
               fill="#000000"
               fill-opacity="1"
               font-family="'Helvetica Neue', 'Helvetica Neue_MSFontService', sans-serif"
               font-style="normal"
               font-variant="normal"
               font-weight="700"
               font-stretch="normal"
               font-size="70px"
               text-anchor="start"
               direction="ltr"
               writing-mode="lr-tb"
               unicode-bidi="normal"
               text-decoration="none"
               transform="matrix(0.672158,0,0,0.674242,574.366,402)"
               id="text91"
               style="text-decoration:none;text-decoration-line:none">Kore</text><text
               fill="#000000"
               fill-opacity="1"
               font-family="'Helvetica Neue', 'Helvetica Neue_MSFontService', sans-serif"
               font-style="normal"
               font-variant="normal"
               font-weight="700"
               font-stretch="normal"
               font-size="70px"
               text-anchor="start"
               direction="ltr"
               writing-mode="lr-tb"
               unicode-bidi="normal"
               text-decoration="none"
               transform="matrix(0.672158,0,0,0.674242,681.566,402)"
               id="text93"
               style="text-decoration:none;text-decoration-line:none">a</text></g></g></g></g></g></svg>
